<?xml version="1.0" encoding="UTF-8"?>
<svg id="Layer_1" data-name="Layer 1" xmlns="http://www.w3.org/2000/svg" viewBox="0 0 84.06 94.88">
  <defs>
    <style>
      .cls-1 {
        fill: #fffaf7;
      }
    </style>
  </defs>
  <path class="cls-1" d="M72.59,64.51c.15,.12,.25,.04,.36-.02,.37-.21,.57-.12,.72,.28,.24,.69,.48,1.39,.73,2.08,.4,1.11,.75,2.23,1.19,3.33,.1,.25,.17,.5,.25,.76,.09,.29-.05,.56-.36,.66-.71,.22-1.39,.55-2.12,.72-.46,.1-.9,.27-1.36,.36-1.67,.32-3.35,.56-5.06,.48-.63-.03-1.27,0-1.9-.09-.44-.07-.88-.14-1.31-.24-.21-.05-.43-.04-.64-.1-.98-.26-1.95-.54-2.88-.95-1.11-.49-2.16-1.07-3.12-1.8-1.08-.82-2.04-1.79-2.77-2.94-.76-1.19-1.31-2.48-1.64-3.87-.35-1.47-.4-2.97-.3-4.46,.08-1.18,.37-2.32,.89-3.4,.3-.63,.57-1.27,.87-1.9,.17-.36,.4-.67,.65-.98,.22-.26,.41-.54,.63-.81,.6-.73,1.3-1.34,2.05-1.92,.68-.52,1.4-.96,2.15-1.35,.35-.18,.72-.32,1.09-.45,.66-.24,1.33-.42,2.01-.57,.51-.11,1.02-.18,1.54-.21,.94-.05,1.88-.04,2.8,.17,.6,.14,1.21,.27,1.8,.49,.4,.15,.81,.27,1.21,.43,.8,.33,1.54,.77,2.27,1.22,.85,.53,1.63,1.16,2.38,1.83,.38,.33,.73,.69,1.09,1.05,.65,.66,1.24,1.37,1.81,2.09,.4,.5,.74,1.05,1.1,1.59,.35,.53,.63,1.1,1.01,1.61,.15,.2,.23,.45,.36,.67,.32,.55,.62,1.11,.86,1.69,.43,1.01,.89,2.01,1.28,3.04,.53,1.38,.95,2.78,1.33,4.2,.19,.71,.38,1.42,.48,2.15,.05,.4-.06,.59-.46,.68-.54,.12-1.09,.24-1.63,.37-.92,.23-1.85,.43-2.77,.67-.6,.15-1.21,.28-1.81,.45-.44,.12-.61,0-.7-.45-.12-.6-.19-1.21-.41-1.78-.23-.59-.29-1.23-.56-1.81-.21-.43-.26-.93-.46-1.37-.27-.59-.41-1.22-.71-1.8-.14-.27-.26-.58-.37-.87-.27-.66-.59-1.29-.92-1.92-.17-.33-.36-.66-.56-.99-.27-.46-.61-.87-.88-1.33-.15-.26-.34-.47-.52-.7-.61-.73-1.27-1.42-2.05-1.97-.62-.44-1.28-.83-2.03-1.01-.22-.05-.43-.15-.65-.22-.59-.18-1.2-.15-1.81-.18-.71-.03-1.36,.18-1.96,.52-.49,.28-.9,.69-1.26,1.14-.37,.48-.61,1.02-.86,1.56-.52,1.13-.37,2.24-.03,3.37,.26,.87,.77,1.57,1.42,2.16,.68,.62,1.49,1.05,2.35,1.36,1.23,.45,2.5,.58,3.82,.5,.58-.04,1.16-.13,1.73-.21,.21-.03,.42-.1,.62-.17,.52-.19,1.04-.4,1.56-.6,.04-.01,.07-.03,.1-.05,.04-.03,.08-.06,.06-.12-.02-.06-.07-.07-.12-.07-.22,0-.44-.02-.64,.04-.54,.13-1.08,.12-1.62,.18-.16,.02-.33,.04-.49,.07-.64,.13-1.28,.21-1.93,.17-.48-.03-.96-.05-1.43-.15-.56-.11-1.12-.22-1.64-.45-.64-.28-1.19-.67-1.64-1.2-.39-.45-.71-.96-.92-1.52-.52-1.36-.35-2.62,.55-3.79,.81-1.06,1.93-1.44,3.18-1.5,.74-.04,1.45,.19,2.13,.51,.9,.42,1.66,1.03,2.33,1.75,.73,.78,1.32,1.67,1.76,2.64,.36,.79,.67,1.6,.88,2.46,.07,.3,.05,.54-.1,.78Zm-5.69,6.24c.91,0,1.6,.01,2.28-.1,1.12-.19,2.26-.31,3.35-.66,.22-.07,.28-.14,.23-.35-.03-.12-.08-.24-.12-.36-.16-.44-.33-.88-.47-1.32-.13-.4-.16-.43-.56-.34-.07,.02-.15,.04-.22,.07-.63,.24-1.29,.35-1.96,.46-.69,.11-1.39,.06-2.09,.09-1.1,.03-2.17-.15-3.22-.46-1.11-.33-2.15-.83-3.09-1.52-.7-.51-1.34-1.11-1.81-1.83-.72-1.11-1.28-2.31-1.26-3.69,0-.08-.02-.15-.02-.23-.03-.9-.08-1.8,.28-2.66,.37-.89,.71-1.79,1.35-2.54,.45-.52,.91-1,1.46-1.42,.64-.49,1.37-.74,2.11-1.02,.06-.02,.12-.04,.18-.04,.72-.1,1.43-.21,2.16-.14,.62,.05,1.24,.11,1.83,.3,.86,.27,1.7,.57,2.49,1.01,.3,.17,.6,.34,.87,.54,.64,.48,1.24,1.01,1.78,1.59,.65,.71,1.24,1.47,1.77,2.28,.27,.41,.52,.84,.78,1.26,.34,.55,.64,1.12,.92,1.71,.34,.73,.67,1.47,.99,2.22,.31,.73,.58,1.49,.84,2.24,.28,.81,.54,1.63,.79,2.45,.11,.36,.14,.37,.51,.27,.55-.14,1.11-.3,1.67-.39,.49-.08,.45-.22,.42-.62,0-.06-.04-.12-.06-.18-.15-.46-.29-.92-.44-1.38-.22-.69-.43-1.38-.7-2.05-.21-.53-.39-1.07-.63-1.59-.22-.47-.4-.95-.65-1.41-.18-.32-.3-.67-.47-1-.42-.77-.84-1.53-1.31-2.27-.45-.72-.95-1.41-1.47-2.08-.76-.97-1.61-1.86-2.53-2.68-.67-.6-1.4-1.13-2.17-1.6-.6-.36-1.21-.68-1.86-.95-.53-.22-1.06-.41-1.62-.54-.48-.11-.97-.2-1.46-.25-.57-.06-1.14-.06-1.71,.01-.43,.05-.85,.16-1.27,.23-.39,.06-.77,.16-1.13,.32-.78,.33-1.55,.67-2.25,1.15-.44,.3-.86,.63-1.26,.98-.44,.38-.8,.84-1.17,1.29-.16,.2-.35,.39-.48,.63-.39,.71-.73,1.45-1.04,2.19-.17,.4-.38,.78-.45,1.21-.08,.5-.16,1-.22,1.5-.13,1.17-.01,2.31,.24,3.44,.32,1.41,.89,2.73,1.84,3.86,.38,.45,.76,.89,1.21,1.25,.38,.31,.78,.61,1.19,.88,.27,.18,.57,.28,.83,.46,.37,.26,.78,.42,1.18,.59,.95,.38,1.93,.7,2.95,.87,.95,.16,1.9,.34,2.64,.3Zm.9-8.17c.39,.04,.93-.12,1.48-.17,.22-.02,.24-.12,.13-.36-.33-.71-.77-1.33-1.31-1.89-.44-.46-.93-.85-1.52-1.12-.57-.26-1.14-.32-1.72-.06-.49,.22-.9,.83-.86,1.32,.02,.21,.12,.39,.2,.57,.19,.5,.52,.89,1,1.14,.76,.4,1.57,.54,2.6,.56Z"/>
  <path class="cls-1" d="M70.18,19.92c.95-.06,2.19,.08,3.42,.25,.86,.12,1.74,.16,2.59,.37,1.07,.26,2.17,.39,3.23,.72,.63,.2,1.28,.31,1.89,.57,.24,.1,.51,.13,.76,.22,.38,.15,.5,.32,.37,.69-.25,.73-.42,1.49-.65,2.23-.16,.5-.33,.99-.43,1.5,0,.04-.02,.08-.03,.11-.32,.73-.44,1.53-.68,2.29-.16,.5-.25,.55-.78,.41-.23-.06-.46-.14-.69-.21-.97-.29-1.95-.56-2.94-.75-.5-.1-.99-.23-1.48-.33-.52-.11-1.05-.15-1.58-.22-.55-.07-1.11-.1-1.66-.19-.53-.08-1.06-.05-1.6-.08-.82-.05-1.65,0-2.47,.03-.39,.01-.78,.11-1.17,.16-.67,.07-1.33,.22-1.95,.45-.42,.16-.84,.33-1.24,.57-.46,.27-.89,.58-1.3,.91-.63,.5-1.2,1.07-1.57,1.81-.11,.21-.26,.4-.35,.63-.4,.98-.34,1.94-.03,2.93,.26,.84,.82,1.48,1.31,2.16,.21,.3,.58,.49,.91,.67,.22,.12,.45,.23,.66,.37,.26,.17,.58,.16,.87,.25,.8,.26,1.59,.18,2.4,0,.99-.23,1.83-.75,2.61-1.35,.82-.63,1.46-1.44,2.02-2.31,.44-.68,.77-1.43,1.06-2.18,.15-.4,.26-.84,.3-1.29,.04-.4,.13-.8,.19-1.2,.01-.09,.02-.18,.02-.27,0-.07,0-.17-.1-.17-.08,0-.09,.07-.12,.13-.21,.51-.42,1.03-.64,1.54-.17,.4-.35,.79-.52,1.18-.03,.06-.06,.11-.08,.17-.57,1.61-1.55,2.93-2.9,3.95-.45,.34-.98,.59-1.57,.64-.32,.03-.62,.13-.94,.16-.22,.02-.43,.04-.64-.02-.42-.13-.87-.14-1.29-.3-.65-.25-1.16-.67-1.57-1.2-.84-1.08-.97-2.3-.59-3.57,.25-.85,.78-1.56,1.47-2.13,.29-.23,.58-.47,.91-.62,.52-.24,1.02-.51,1.59-.67,1.21-.33,2.43-.45,3.69-.34,.98,.08,1.93,.29,2.87,.53,.12,.03,.2,.1,.27,.19,.05,.07,.09,.17,.2,.13,.1-.04,.07-.15,.08-.23,0-.01,0-.03,0-.04,.04-.35,.2-.49,.55-.45,.35,.04,.7,.14,1.04,.22,.67,.16,1.36,.18,2.02,.37,.11,.03,.23,.04,.33,.09,.22,.12,.46,.13,.7,.12,.22,0,.43,.04,.64,.08,.52,.11,1.04,.22,1.56,.3,.47,.07,.66,.31,.54,.75-.1,.38-.17,.76-.21,1.15-.04,.46-.17,.92-.3,1.37-.14,.49-.27,.98-.45,1.45-.22,.59-.38,1.2-.7,1.76-.18,.31-.28,.67-.45,1-.53,1.04-1.13,2.04-1.82,2.97-.79,1.06-1.69,2.02-2.71,2.87-.8,.67-1.64,1.26-2.56,1.75-.97,.53-1.99,.95-3.05,1.25-.49,.14-.99,.19-1.5,.25-.48,.05-.96,.1-1.44,.09-.95-.02-1.9-.09-2.83-.33-.82-.21-1.62-.49-2.4-.85-1-.46-1.93-1.01-2.8-1.68-.7-.55-1.35-1.16-1.87-1.88-.56-.77-1.13-1.53-1.58-2.37-.34-.63-.59-1.29-.82-1.96-.27-.78-.4-1.6-.52-2.41-.04-.24-.04-.48-.04-.72,0-.5,0-.99,0-1.49-.01-.72,.12-1.41,.28-2.11,.23-1.06,.58-2.08,1.11-3.02,.5-.88,1.06-1.72,1.76-2.47,.53-.55,1.08-1.07,1.68-1.54,.53-.41,1.08-.8,1.67-1.11,.39-.21,.75-.48,1.16-.64,.74-.29,1.46-.64,2.23-.88,1.01-.31,2.01-.63,3.06-.77,1.04-.14,2.08-.33,3.13-.38,.71-.03,1.42-.04,2.43-.06Zm-.64,2.44c-.6,0-1.25-.03-1.9,.06-.4,.05-.8,.13-1.21,.14-.6,.02-1.19,.14-1.76,.26-.85,.18-1.7,.38-2.53,.69-.67,.25-1.33,.51-1.96,.83-.63,.32-1.26,.65-1.83,1.08-.78,.59-1.52,1.22-2.14,1.99-.43,.54-.82,1.1-1.12,1.71-.27,.55-.49,1.14-.66,1.73-.09,.32-.19,.62-.22,.95-.03,.3-.06,.61-.08,.91-.09,1.27-.07,2.53,.37,3.76,.04,.11,.08,.21,.11,.33,.16,.68,.46,1.29,.83,1.87,.47,.74,.96,1.46,1.53,2.12,.4,.46,.82,.89,1.36,1.2,.14,.08,.28,.18,.41,.28,.52,.41,1.13,.66,1.72,.96,.46,.24,.96,.38,1.46,.52,.4,.11,.79,.24,1.22,.29,1.3,.15,2.58,.13,3.85-.22,.59-.16,1.18-.35,1.71-.63,.92-.47,1.8-1.03,2.61-1.69,.8-.64,1.5-1.36,2.13-2.16,.64-.8,1.23-1.64,1.7-2.56,.55-1.07,1.07-2.16,1.4-3.32,.11-.37,.24-.72,.33-1.09,.08-.3,0-.38-.28-.45-.5-.12-1.03-.16-1.52-.34-.08-.03-.18-.02-.26-.02-.33,0-.37,.03-.42,.35-.13,.85-.43,1.64-.76,2.42-.26,.63-.59,1.23-.96,1.81-.31,.5-.64,.97-1.04,1.4-.43,.46-.85,.94-1.34,1.34-.65,.54-1.36,.98-2.1,1.36-.66,.34-1.37,.53-2.09,.66-1.05,.19-2.09,.14-3.13-.12-.46-.11-.89-.27-1.33-.45-1.02-.43-1.9-1.04-2.59-1.91-.62-.79-1.17-1.62-1.5-2.58-.17-.49-.27-1-.35-1.51-.11-.71-.06-1.4,.08-2.08,.2-1.02,.66-1.94,1.26-2.79,.66-.93,1.52-1.66,2.43-2.33,.71-.53,1.49-.9,2.31-1.22,.68-.26,1.37-.46,2.08-.58,.81-.13,1.63-.27,2.45-.31,1.27-.06,2.54-.04,3.8,.09,.58,.06,1.15,.18,1.73,.22,.35,.02,.71,.05,1.06,.12,.84,.17,1.7,.29,2.54,.49,.52,.12,1.05,.19,1.55,.38,.25,.1,.3,.08,.38-.2,.19-.63,.38-1.26,.55-1.89,.11-.4,.09-.39-.31-.52-.58-.19-1.16-.34-1.76-.45-1.12-.2-2.22-.54-3.37-.56-.08,0-.15-.02-.23-.03-.72-.17-1.46-.15-2.19-.26-.65-.1-1.32-.05-2.02-.06Zm-1.45,6.38c-.33,0-.62,0-.91,0-.31,0-.6,.1-.89,.15-.77,.12-1.54,.24-2.2,.71-.05,.04-.11,.05-.18,.05-.09,0-.17,.03-.25,.08-.56,.35-1.07,.76-1.49,1.26-.66,.79-1,1.68-.98,2.72,.02,.9,.36,1.67,.95,2.34,.31,.35,.69,.63,1.11,.85,.47,.25,1.01,.2,1.49,.38,.03,.01,.08,0,.11,0,.33,0,.66,.05,.97-.13,.05-.03,.12-.02,.19-.02,.64,.02,1.19-.26,1.7-.57,.53-.34,.98-.81,1.38-1.29,.8-.96,1.34-2.07,1.79-3.22,.11-.28,.24-.55,.33-.84,.11-.36,.3-.69,.46-1.03,.1-.2,.15-.4,.22-.6,.06-.15,0-.28-.16-.27-.24,0-.44-.12-.66-.17-.47-.11-.94-.16-1.41-.26-.54-.11-1.08-.11-1.59-.12Z"/>
  <path class="cls-1" d="M14.29,74.82c-.38,0-.76,0-1.14,0-1.01-.03-2.02-.12-3.03-.23-.41-.04-.83-.11-1.23-.24-.35-.11-.73-.03-1.09-.13-.35-.1-.73-.1-1.07-.26-.08-.04-.17-.05-.26-.05-.55-.01-1.07-.2-1.59-.33-.55-.14-1.1-.31-1.65-.44-.46-.11-.88-.31-1.33-.44-.32-.09-.41-.33-.31-.67,.11-.38,.23-.75,.34-1.13,.25-.85,.5-1.7,.75-2.55,.18-.62,.38-1.23,.57-1.85,.05-.17,.09-.34,.12-.52,.02-.13,.08-.24,.15-.34,.14-.2,.3-.26,.53-.18,.64,.25,1.31,.38,1.96,.61,.35,.12,.74,.14,1.11,.24,.88,.25,1.78,.38,2.68,.55,.72,.14,1.45,.21,2.18,.31,1.48,.2,2.97,.13,4.45,.12,.38,0,.75-.12,1.13-.14,.72-.05,1.4-.26,2.07-.47,.55-.17,1.07-.43,1.57-.75,.53-.34,.99-.75,1.48-1.12,.4-.3,.66-.73,.95-1.13,.26-.36,.43-.78,.63-1.17,.14-.26,.12-.57,.15-.86,.06-.55,.06-1.11-.12-1.62-.21-.6-.46-1.21-.87-1.72-.21-.25-.43-.5-.62-.77-.1-.14-.27-.23-.41-.33-.56-.38-1.16-.7-1.81-.86-.71-.18-1.45-.23-2.19-.1-1.04,.18-1.93,.67-2.75,1.28-.69,.51-1.28,1.11-1.78,1.8-.59,.81-1.08,1.68-1.41,2.63-.12,.34-.25,.67-.32,1.01-.12,.59-.28,1.18-.3,1.79,0,.04,0,.08,0,.11,0,.07,.03,.13,.1,.14,.07,.01,.12-.04,.14-.1,.13-.39,.35-.75,.46-1.16,.01-.05,.02-.1,.05-.14,.43-.74,.66-1.56,1.04-2.32,.5-1.03,1.15-1.94,2-2.7,.63-.56,1.34-1.01,2.19-1.17,1.32-.25,2.58-.12,3.7,.69,.55,.4,.94,.93,1.18,1.55,.4,1.05,.39,2.1-.08,3.14-.35,.79-.87,1.4-1.56,1.93-.65,.5-1.39,.78-2.14,1.06-.55,.2-1.14,.24-1.72,.31-.52,.06-1.04,.11-1.56,.07-1.07-.09-2.15-.14-3.18-.5-.17-.06-.33-.11-.46-.25-.11-.11-.19-.08-.24,.07-.02,.06-.01,.13-.03,.19-.07,.26-.28,.43-.54,.35-.53-.15-1.08-.15-1.6-.31-.31-.1-.64-.16-.97-.19-.71-.07-1.39-.27-2.09-.39-.59-.1-1.18-.19-1.76-.32-.43-.1-.53-.22-.43-.63,.09-.37,.07-.76,.17-1.13,.24-.86,.35-1.76,.67-2.61,.19-.51,.35-1.04,.56-1.53,.27-.65,.52-1.32,.92-1.91,.17-.26,.26-.57,.43-.84,.8-1.32,1.71-2.55,2.79-3.64,.7-.7,1.45-1.34,2.26-1.91,.71-.5,1.48-.93,2.28-1.28,.36-.15,.72-.32,1.08-.46,1.39-.5,2.81-.74,4.29-.7,1.35,.03,2.64,.3,3.89,.78,.92,.35,1.81,.75,2.64,1.26,.84,.52,1.66,1.08,2.32,1.83,.57,.64,1.11,1.32,1.57,2.05,.1,.16,.22,.31,.33,.46,.37,.47,.6,1.02,.83,1.57,.24,.57,.47,1.15,.6,1.76,.21,.97,.41,1.93,.43,2.93,.01,.93-.04,1.84-.26,2.76-.14,.59-.22,1.2-.43,1.77-.19,.51-.39,1.01-.65,1.5-.37,.7-.79,1.35-1.28,1.97-.51,.65-1.08,1.25-1.72,1.77-.32,.26-.64,.54-.97,.78-.29,.21-.59,.39-.89,.57-.38,.23-.76,.46-1.15,.66-.39,.2-.8,.36-1.2,.54-.64,.28-1.3,.5-1.97,.68-.41,.11-.81,.25-1.22,.36-.27,.08-.57,.13-.86,.11-.06,0-.13,0-.19,.01-.88,.35-1.81,.33-2.73,.43-.85,.09-1.7,.09-2.55,.08Zm-.03-2.41c.77-.01,1.37-.01,1.96-.07,.82-.08,1.63-.12,2.45-.27,1.08-.2,2.13-.46,3.16-.81,.83-.28,1.65-.58,2.41-1.02,.85-.5,1.7-1.01,2.42-1.7,.31-.3,.65-.57,.92-.9,.41-.52,.79-1.05,1.12-1.62,.3-.52,.54-1.06,.72-1.62,.41-1.26,.57-2.54,.5-3.86-.04-.62-.11-1.24-.27-1.84-.18-.7-.47-1.37-.71-2.05-.02-.05-.04-.09-.07-.13-.37-.44-.61-.96-.97-1.41-.45-.56-.84-1.17-1.38-1.65-.53-.47-1.09-.91-1.71-1.25-.23-.13-.44-.3-.68-.41-.84-.36-1.66-.74-2.56-.92-.49-.09-.97-.23-1.46-.25-1.39-.08-2.75,.16-4.05,.67-1.06,.41-2.03,.97-2.92,1.67-.35,.27-.72,.51-1.04,.83-.7,.7-1.39,1.4-1.95,2.22-.37,.53-.73,1.06-1.05,1.63-.37,.65-.67,1.34-.99,2.01-.42,.88-.69,1.8-.94,2.73-.1,.36-.04,.44,.34,.51,.55,.1,1.09,.23,1.65,.29,.36,.04,.41,.02,.5-.34,.09-.36,.12-.73,.25-1.07,.41-1.05,.81-2.1,1.43-3.06,.49-.76,1.03-1.47,1.66-2.12,.47-.48,1.01-.88,1.55-1.28,1.1-.8,2.32-1.29,3.66-1.49,1.12-.16,2.22-.1,3.3,.27,.2,.07,.4,.18,.6,.23,.68,.17,1.24,.57,1.8,.96,.85,.6,1.4,1.46,1.96,2.31,.14,.22,.32,.44,.39,.69,.15,.61,.44,1.17,.55,1.81,.16,.94,.1,1.85-.12,2.75-.14,.6-.4,1.17-.71,1.71-.46,.81-1.07,1.5-1.74,2.13-.47,.44-.97,.81-1.49,1.18-.32,.23-.66,.44-1.01,.6-.82,.37-1.67,.65-2.55,.85-.92,.21-1.84,.36-2.78,.39-.86,.03-1.73,.03-2.59,.02-.65-.01-1.29-.08-1.93-.13-.49-.04-.98-.12-1.46-.22-.47-.09-.95-.12-1.43-.2-.69-.12-1.38-.22-2.05-.39-.45-.11-.9-.24-1.37-.3-.29-.03-.34-.01-.43,.24-.19,.55-.27,1.13-.53,1.67-.05,.1-.02,.22-.03,.34-.01,.18,.06,.28,.24,.32,.43,.1,.86,.22,1.29,.32,.72,.16,1.43,.37,2.15,.47,1.12,.14,2.22,.39,3.35,.43,.95,.03,1.89,.17,2.67,.14Zm8.51-11.12c0-.34,0-.57,0-.8,0-.1,0-.2-.05-.3-.21-.43-.37-.87-.68-1.26-.7-.86-1.58-1.32-2.67-1.4-.09,0-.18-.02-.26-.04-.11-.03-.23-.05-.34,0-.15,.06-.3,.06-.45,.05-.35-.04-.69,.08-1,.2-.71,.27-1.35,.67-1.89,1.23-.36,.37-.68,.77-.98,1.2-.27,.38-.52,.77-.72,1.2-.2,.44-.41,.87-.58,1.32-.14,.39-.35,.75-.51,1.14-.14,.33-.24,.68-.41,1.01-.24,.47-.19,.56,.31,.72,.08,.03,.17,.04,.26,.07,.86,.29,1.76,.3,2.65,.37,.82,.06,1.64,0,2.46-.13,1.12-.17,2.14-.57,3.05-1.24,.58-.43,1.05-.95,1.38-1.59,.29-.58,.55-1.17,.43-1.74Z"/>
  <path class="cls-1" d="M29.88,73.43c-.1-1.05,.09-2.12,.34-3.16,.14-.59,.34-1.19,.59-1.76,.32-.72,.72-1.4,1.15-2.05,.46-.7,1-1.34,1.65-1.88,.36-.3,.66-.66,1.05-.93,1.04-.73,2.11-1.4,3.3-1.87,.53-.21,1.06-.43,1.62-.52,.67-.11,1.35-.25,2.03-.26,.01,0,.03,0,.04,0,.96-.14,1.92-.14,2.88,.01,.65,.1,1.3,.21,1.92,.43,.53,.19,1.06,.34,1.57,.56,.42,.18,.8,.44,1.2,.65,1.46,.77,2.65,1.87,3.65,3.16,.56,.72,1.03,1.5,1.39,2.35,.22,.52,.38,1.04,.58,1.57,.27,.72,.35,1.48,.45,2.23,.13,.98,.15,1.97,.06,2.96-.06,.69-.16,1.38-.26,2.07-.11,.72-.35,1.4-.47,2.11-.03,.18-.12,.33-.17,.5-.33,1.12-.81,2.18-1.3,3.24-.5,1.08-1.1,2.11-1.72,3.12-.62,1.02-1.34,1.96-2.05,2.92-.54,.72-1.1,1.42-1.7,2.09-.55,.62-1.1,1.26-1.71,1.83-.26,.24-.51,.5-.75,.75-.4,.41-.88,.73-1.29,1.12-.28,.26-.47,.27-.71-.02-.55-.65-1.19-1.21-1.75-1.85-.52-.59-1.09-1.13-1.64-1.69-.36-.37-.71-.75-1.06-1.13-.29-.32-.26-.5,.04-.79,.91-.88,1.83-1.76,2.67-2.71,.5-.57,1.01-1.14,1.48-1.73,.56-.69,1.11-1.38,1.61-2.11,.38-.57,.76-1.14,1.12-1.71,.31-.49,.57-1.02,.81-1.55,.31-.71,.65-1.4,.86-2.15,.26-.95,.39-1.9,.33-2.89-.05-.77-.17-1.51-.43-2.23-.28-.77-.68-1.46-1.27-2.04-.91-.89-2.02-1.17-3.23-1.15-.7,.02-1.42,.03-2.08,.38-.59,.32-1.15,.68-1.63,1.15-.53,.52-.9,1.13-1.15,1.81-.15,.41-.27,.85-.31,1.29-.07,.73-.05,1.47,.11,2.2,.14,.63,.31,1.26,.56,1.85,.28,.66,.65,1.28,1.06,1.88,.35,.52,.75,.98,1.19,1.42,.39,.39,.84,.73,1.28,1.07,.28,.22,.56,.43,.84,.65,.32,.25,.36,.58,.08,.89-.3,.34-.62,.67-.91,1.02-.58,.69-1.15,1.39-1.74,2.08-.52,.61-1.05,1.2-1.57,1.8-.18,.2-.4,.22-.64,.03-.53-.41-1.07-.81-1.55-1.29-.7-.69-1.39-1.41-2.02-2.17-.81-.98-1.53-2.02-2.16-3.12-.61-1.07-1.11-2.19-1.47-3.37-.5-1.63-.84-3.29-.75-5.06Zm23.08,.42c0-.6,0-1.19-.1-1.78-.14-.88-.35-1.74-.68-2.57-.39-.99-.96-1.87-1.66-2.67-.85-.99-1.88-1.76-3.04-2.35-.34-.17-.67-.36-1.03-.48-.56-.2-1.13-.39-1.72-.48-.75-.12-1.5-.25-2.27-.15-.48,.06-.96,.07-1.44,.13-.52,.07-1.06,.11-1.56,.31-.37,.15-.75,.29-1.12,.46-.57,.27-1.13,.57-1.65,.93-.61,.43-1.2,.87-1.71,1.43-.56,.62-1.11,1.24-1.51,1.98-.41,.76-.65,1.59-.95,2.39-.03,.08-.05,.17-.06,.26-.06,.59-.15,1.18-.17,1.78-.05,1.13,.08,2.25,.29,3.36,.05,.25,.16,.48,.21,.73,.16,.84,.53,1.61,.86,2.39,.28,.66,.66,1.28,1.03,1.9,.37,.62,.8,1.2,1.25,1.76,.53,.65,1.08,1.28,1.69,1.85,.24,.23,.29,.23,.51-.02,.34-.39,.69-.78,1.03-1.17,.07-.08,.12-.16,.17-.25,.15-.25,.14-.34-.1-.51-.46-.35-.84-.77-1.21-1.21-.44-.52-.87-1.06-1.21-1.65-.43-.74-.81-1.51-1.1-2.33-.36-1.02-.54-2.06-.61-3.12-.06-.9,.05-1.79,.26-2.68,.13-.52,.32-1.02,.55-1.49,.2-.43,.48-.83,.77-1.22,.35-.45,.76-.85,1.2-1.21,.52-.42,1.09-.78,1.7-1.06,.36-.17,.71-.33,1.1-.41,.49-.11,.98-.13,1.47-.17,.96-.09,1.9-.02,2.82,.24,.59,.17,1.15,.41,1.66,.74,.56,.37,1.08,.79,1.52,1.31,.41,.49,.74,1.03,1.03,1.58,.33,.64,.5,1.35,.68,2.05,.12,.47,.18,.94,.18,1.43-.01,.69,0,1.37,0,2.06,0,.38-.06,.75-.14,1.13-.06,.26-.18,.5-.23,.76-.18,.88-.56,1.68-.93,2.48-.19,.43-.42,.83-.65,1.24-.27,.49-.54,.98-.84,1.44-.52,.8-1.08,1.56-1.63,2.34-.41,.58-.9,1.1-1.35,1.64-.58,.69-1.14,1.39-1.79,2.02-.15,.14-.28,.29-.42,.44-.19,.2-.2,.26-.02,.45,.45,.49,.91,.98,1.38,1.46,.2,.2,.3,.2,.52,0,.31-.28,.62-.56,.9-.87,.55-.6,1.08-1.21,1.61-1.82,.31-.35,.62-.7,.89-1.08,.53-.75,1.11-1.47,1.6-2.26,.33-.54,.66-1.08,1-1.62,.15-.23,.32-.46,.44-.71,.22-.47,.46-.93,.67-1.41,.28-.62,.57-1.25,.81-1.89,.22-.59,.37-1.21,.53-1.82,.35-1.32,.58-2.65,.57-4.02Z"/>
  <path class="cls-1" d="M36.31,19.54c-.05,.32-.02,.65,0,.97-.13,.41,.03,.78,.19,1.14,0,.05,0,.09,.01,.14-.05,.14-.01,.27,.03,.41,.11,.35,.22,.69,.38,1.02,.41,.87,.97,1.6,1.79,2.11,.29,.18,.6,.35,.93,.41,.7,.13,1.39,.3,2.14,.18,.79-.12,1.54-.26,2.2-.74,.17-.13,.39-.18,.55-.34,.53-.54,1.08-1.04,1.41-1.76,.3-.66,.51-1.33,.58-2.03,.07-.69,.05-1.39-.13-2.08-.05-.21-.12-.41-.17-.62-.11-.52-.3-1.03-.53-1.5-.34-.69-.71-1.37-1.2-1.97-.42-.51-.85-1-1.36-1.43-.49-.4-1.01-.77-1.49-1.18-.45-.38-.6-.31-.29-.99,.04-.04,.07-.09,.11-.13,.03-.02,.07-.03,.1-.06,.39-.43,.74-.9,1.16-1.29,.15-.14,.27-.29,.31-.5,.01-.02,.03-.03,.04-.05,.31-.15,.47-.46,.68-.7,.57-.65,1.15-1.28,1.69-1.95,.35-.44,.54-.34,.85-.1,.66,.53,1.31,1.06,1.88,1.69,.36,.4,.77,.77,1.13,1.18,.69,.79,1.32,1.64,1.88,2.52,.33,.51,.63,1.03,.91,1.57,.57,1.1,1.07,2.22,1.36,3.42,.15,.61,.36,1.21,.43,1.85,.01,.1,.04,.2,.14,.26,0,.07,.01,.14,.01,.21-.06,.29-.03,.58,0,.87,.09,.83,.09,1.66,0,2.49-.03,.24-.06,.48,0,.71,0,.05,0,.09-.01,.14-.11,.06-.14,.18-.15,.29-.09,.66-.31,1.28-.51,1.91-.13,.42-.29,.84-.5,1.23-.44,.82-.94,1.62-1.55,2.34-.22,.26-.44,.52-.69,.76-.22,.21-.48,.38-.69,.59-.7,.67-1.49,1.22-2.34,1.67-.67,.35-1.35,.68-2.06,.95-.53,.2-1.07,.32-1.61,.41-.66,.11-1.33,.16-2,.23-.38,.04-.76,.09-1.14,.07-.55-.03-1.11-.11-1.66-.21-.66-.12-1.32-.23-1.95-.47-.48-.18-.98-.35-1.44-.59-.62-.32-1.24-.62-1.8-1.05-.17-.13-.32-.28-.5-.39-.85-.52-1.47-1.28-2.09-2.02-.53-.64-.99-1.33-1.34-2.1-.48-1.05-.97-2.09-1-3.28,0-.06-.01-.13-.04-.18-.2-.41-.19-.86-.25-1.3-.12-.83-.08-1.67,0-2.5,.03-.3,.02-.61,.11-.9,.21-.67,.16-1.38,.33-2.06,.06-.26,.18-.5,.23-.76,.1-.55,.29-1.08,.49-1.6,.33-.87,.68-1.74,1.09-2.58,.46-.96,.99-1.88,1.54-2.79,.35-.57,.71-1.13,1.11-1.67,.2-.26,.39-.53,.57-.8,.24-.36,.56-.66,.72-1.06,.02-.01,.03-.02,.05-.03,.16-.05,.24-.18,.33-.3,.13-.17,.25-.35,.38-.52,.27-.36,.63-.65,.85-1.06,.03-.03,.05-.05,.08-.08,.24-.17,.48-.34,.57-.64,.06-.07,.12-.13,.19-.2,.28-.13,.46-.39,.67-.59,.27-.26,.57-.52,.77-.86,.09-.09,.18-.18,.28-.27,.14,.02,.2-.09,.28-.16,.28-.21,.5-.49,.8-.68,.32-.2,.35-.21,.61,.05,.3,.3,.58,.62,.87,.93,.08,.08,.14,.18,.27,.18,0,0,0,0,0,0,.05,.2,.17,.34,.38,.38,.03,.03,.05,.05,.08,.08-.01,.12,.06,.19,.13,.26,.45,.43,.87,.89,1.29,1.35,.48,.52,.97,1.02,1.45,1.53,.24,.25,.24,.35-.02,.6-.21,.2-.44,.39-.64,.59-.8,.79-1.59,1.59-2.33,2.44-.57,.66-1.16,1.3-1.68,2-.05,.07-.12,.13-.11,.23-.01,.02-.02,.04-.03,.05-.08,.02-.14,.06-.18,.12-.31,.42-.64,.82-.91,1.26-.11,.18-.3,.31-.32,.55-.01,.02-.02,.03-.03,.05-.35,.35-.58,.8-.82,1.22-.56,1-1.06,2.04-1.46,3.12-.12,.31-.19,.63-.18,.96,0,.05-.01,.09-.02,.14-.17,.42-.31,.85-.2,1.32Zm15.41,1.53c.02-.87-.1-1.75-.3-2.62-.19-.83-.44-1.64-.73-2.43-.2-.55-.48-1.09-.76-1.6-.45-.82-.94-1.62-1.52-2.36-.5-.64-1-1.27-1.56-1.86-.15-.16-.29-.32-.46-.45-.26-.21-.41-.18-.6,.09-.09,.13-.19,.24-.29,.35-.25,.28-.5,.57-.75,.86-.26,.31-.25,.4,.03,.66,.3,.29,.62,.56,.89,.88,.87,1,1.63,2.07,2.17,3.28,.2,.46,.43,.92,.56,1.41,.13,.49,.23,.98,.33,1.48,.24,1.21,.23,2.42-.05,3.62-.11,.48-.23,.97-.44,1.42-.48,1.03-1.14,1.94-2,2.68-.59,.51-1.22,.94-1.94,1.24-.66,.28-1.35,.42-2.06,.5-.8,.1-1.59,.12-2.39-.02-.16-.03-.31-.1-.47-.13-.63-.11-1.22-.32-1.78-.63-.41-.23-.77-.52-1.12-.83-.42-.36-.77-.76-1.07-1.21-.4-.59-.7-1.23-.95-1.89-.33-.85-.49-1.74-.56-2.63-.08-.98-.08-1.98,.15-2.95,.12-.49,.19-.99,.39-1.47,.22-.53,.35-1.1,.63-1.62,.21-.38,.33-.8,.55-1.17,.51-.87,.99-1.76,1.57-2.6,.43-.61,.88-1.21,1.31-1.81,.41-.58,.88-1.11,1.34-1.65,.65-.75,1.29-1.5,1.99-2.2,.27-.27,.28-.36,.02-.63-.34-.34-.67-.69-.98-1.06-.1-.12-.21-.22-.32-.32-.23-.21-.28-.2-.51,0-.19,.18-.36,.38-.55,.56-.5,.48-.95,1.01-1.41,1.53-.58,.65-1.15,1.32-1.66,2.03-.64,.88-1.3,1.74-1.85,2.68-.12,.21-.23,.42-.38,.62-.24,.33-.4,.7-.6,1.05-.33,.61-.61,1.24-.91,1.87-.21,.45-.28,.95-.59,1.35-.02,.03-.03,.07-.03,.11-.05,.34-.17,.66-.27,.99-.26,.88-.46,1.76-.58,2.67-.09,.7-.19,1.41-.2,2.12-.02,.76,.14,1.51,.25,2.27,.12,.84,.4,1.62,.72,2.39,.05,.12,.08,.24,.14,.35,.23,.38,.46,.76,.71,1.12,.27,.38,.54,.76,.88,1.09,.57,.57,1.16,1.12,1.87,1.52,.3,.17,.58,.37,.88,.52,.74,.37,1.5,.72,2.32,.89,.3,.06,.6,.08,.9,.14,.53,.11,1.07,.16,1.62,.13,.56-.04,1.11-.13,1.66-.18,.72-.05,1.42-.17,2.09-.49,.96-.45,1.91-.91,2.75-1.58,.41-.33,.83-.65,1.19-1.05,.57-.61,1.12-1.23,1.5-1.99,.31-.61,.62-1.22,.79-1.89,.09-.36,.21-.71,.28-1.07,.12-.7,.15-1.41,.14-2.14Z"/>
  <path class="cls-1" d="M31.66,33.47s.01,.1,.02,.14c0,.52,0,1.04,0,1.56,0,1.02-.22,2.01-.4,3.01-.02,.08-.07,.16-.1,.24-.06,.13-.14,.25-.18,.38-.29,.99-.79,1.89-1.26,2.8-.29,.57-.72,1.06-1.14,1.54-.57,.66-1.18,1.28-1.88,1.81-.79,.59-1.63,1.11-2.53,1.54-.97,.46-1.99,.74-3.03,.98-.36,.08-.73,.11-1.09,.13-.96,.03-1.93,.05-2.89-.08-.53-.07-1.04-.24-1.55-.37-.78-.19-1.52-.51-2.23-.86-1-.49-1.95-1.07-2.82-1.77-.32-.26-.68-.48-.98-.78-.63-.62-1.3-1.2-1.88-1.87-.52-.6-1.05-1.2-1.52-1.85-.64-.88-1.22-1.8-1.77-2.74-.51-.85-.94-1.73-1.38-2.62-.28-.55-.56-1.11-.78-1.68-.23-.6-.51-1.19-.67-1.82-.07-.26-.16-.51-.26-.75-.17-.4-.25-.82-.39-1.23-.29-.83-.46-1.68-.68-2.53-.11-.43-.19-.87-.23-1.31-.03-.34,0-.37,.31-.52,.44-.22,.92-.27,1.39-.38,.75-.19,1.5-.39,2.25-.55,.77-.16,1.52-.4,2.29-.53,.15-.02,.29-.09,.44-.13,.33-.09,.49-.02,.58,.3,.16,.53,.28,1.08,.4,1.62,.09,.41,.24,.8,.37,1.2,.24,.76,.44,1.54,.72,2.28,.18,.48,.33,.99,.57,1.45,.19,.36,.3,.75,.46,1.13,.28,.66,.59,1.29,.93,1.91,.59,1.06,1.19,2.11,1.97,3.06,.61,.75,1.29,1.43,2.06,2.01,.34,.26,.72,.46,1.11,.64,1.12,.51,2.28,.87,3.53,.78,1.01-.08,1.9-.43,2.65-1.17,.71-.7,1.13-1.55,1.47-2.45,.15-.38,.17-.8,.16-1.2,0-.75-.13-1.5-.43-2.19-.3-.69-.75-1.28-1.32-1.78-.42-.37-.88-.67-1.38-.93-.99-.54-2.06-.75-3.15-.9-.97-.14-1.92-.05-2.87,.13-.61,.11-1.22,.25-1.8,.47-.06,.02-.14,.02-.18,.06-.21,.22-.49,.26-.76,.32-.13,.03-.24,.07-.3,.25,.29,.02,.54,.02,.81-.02,1.03-.17,2.06-.27,3.09-.36,.78-.07,1.55-.06,2.32,.03,.79,.09,1.56,.27,2.28,.68,.86,.5,1.54,1.19,1.97,2.05,.39,.77,.62,1.62,.43,2.51-.18,.83-.51,1.58-1.17,2.17-1,.89-2.15,1.19-3.45,1.02-.76-.1-1.49-.33-2.13-.77-.79-.54-1.53-1.15-2.12-1.94-.58-.79-1.08-1.62-1.48-2.51-.29-.65-.53-1.31-.7-2-.06-.22-.1-.44-.01-.67,.06-.16,0-.2-.18-.16-.04,0-.07,.02-.11,.03-.41,.12-.57,.05-.71-.37-.32-.91-.64-1.81-.96-2.72-.32-.9-.63-1.79-.96-2.68-.08-.23-.15-.46-.2-.69-.07-.29-.02-.41,.24-.57,.27-.17,.57-.28,.87-.38,.62-.19,1.22-.44,1.85-.57,.88-.17,1.75-.4,2.65-.5,.77-.08,1.54-.17,2.31-.21,.47-.02,.94-.04,1.41,.02,.44,.06,.89-.02,1.33,.1,.28,.07,.57,.1,.86,.12,.57,.03,1.13,.17,1.67,.35,.18,.06,.38,.06,.56,.12,.67,.23,1.34,.48,2,.72,.02,0,.05,.02,.07,.03,.68,.41,1.43,.68,2.08,1.14,.9,.64,1.76,1.32,2.49,2.15,.38,.43,.74,.87,1.06,1.34,.32,.46,.59,.95,.8,1.47,.18,.43,.37,.86,.53,1.3,.33,.93,.47,1.89,.61,2.86,0,.05,.03,.09,.05,.14Zm-14.9-11.67c-.87,0-1.81-.06-2.72,.22-.04,.01-.08,0-.11,0-.93-.02-1.81,.31-2.71,.46-.37,.06-.72,.21-1.08,.31-.46,.13-.92,.28-1.36,.48-.37,.16-.46,.36-.34,.76,.02,.06,.03,.12,.06,.18,.21,.58,.42,1.17,.62,1.75,.21,.62,.47,1.23,.65,1.86,.2,.67,.46,1.33,.7,1.99,.12,.33,.29,.41,.61,.33,.21-.05,.35-.21,.54-.26,.33-.07,.63-.2,.94-.36,.71-.36,1.52-.48,2.29-.62,.72-.14,1.47-.19,2.21-.1,.51,.06,1.02,.07,1.53,.23,.69,.22,1.4,.35,2.05,.73,.49,.29,.98,.56,1.41,.93,.54,.46,.93,1.03,1.25,1.66,.23,.45,.36,.95,.46,1.44,.12,.65,.16,1.3-.01,1.95-.17,.64-.46,1.23-.76,1.81-.25,.5-.66,.84-1.04,1.23-.32,.33-.74,.48-1.13,.68-.37,.19-.77,.28-1.17,.29-.53,.02-1.06,.02-1.59-.05-.83-.11-1.58-.45-2.33-.78-.18-.08-.38-.13-.54-.25-.34-.26-.69-.5-1.04-.76-.32-.24-.6-.53-.88-.82-.22-.23-.4-.49-.61-.72-.34-.38-.62-.8-.89-1.22-.37-.59-.73-1.18-1.07-1.78-.17-.3-.35-.59-.48-.9-.16-.41-.4-.78-.54-1.21-.11-.34-.24-.7-.42-1.01-.3-.5-.41-1.06-.61-1.59-.19-.5-.36-1.02-.53-1.54-.18-.56-.29-1.16-.55-1.69-.02-.03,0-.08-.01-.11-.08-.57-.25-1.13-.39-1.69-.06-.23-.22-.3-.44-.22-.11,.04-.2,.12-.32,.11-.46-.05-.87,.17-1.29,.27-.48,.11-.98,.18-1.46,.34-.37,.12-.77,.16-1.14,.29-.42,.15-.86,.23-1.29,.3-.31,.06-.57,.19-.86,.27-.12,.04-.22,.14-.2,.29,.08,.5,.11,1.01,.25,1.49,.25,.8,.4,1.61,.67,2.41,.32,.96,.64,1.91,.97,2.86,.12,.35,.21,.71,.4,1.02,.22,.37,.35,.78,.57,1.15,.27,.46,.37,1.02,.74,1.43,.02,.02,.03,.04,.03,.07,.05,.43,.33,.76,.54,1.1,.21,.34,.38,.71,.6,1.05,.31,.47,.62,.95,.94,1.41,.29,.43,.63,.83,.92,1.25,.44,.64,.99,1.18,1.5,1.76,.34,.38,.72,.71,1.1,1.05,.49,.45,1.03,.81,1.53,1.23,.38,.32,.81,.56,1.22,.83,.42,.28,.87,.52,1.32,.73,.56,.25,1.11,.52,1.71,.7,1.12,.34,2.24,.61,3.41,.62,.36,0,.71,.02,1.07,0,.41-.02,.83-.05,1.24-.12,.77-.13,1.53-.33,2.27-.59,.58-.21,1.14-.47,1.68-.76,.39-.21,.74-.49,1.12-.71,.61-.35,1.12-.82,1.62-1.3,.53-.5,1.02-1.05,1.45-1.65,.34-.47,.66-.94,.92-1.46,.17-.33,.33-.66,.44-1.01,.11-.34,.45-.6,.39-1.01,0-.03,.03-.07,.05-.1,.17-.28,.26-.58,.34-.91,.2-.79,.27-1.59,.34-2.39,.06-.76,.05-1.52-.08-2.27-.05-.26-.01-.53-.09-.79-.2-.66-.21-1.37-.54-2,0-.01-.01-.02-.01-.04-.05-.45-.36-.79-.49-1.21-.11-.36-.34-.67-.53-1-.31-.53-.66-1.02-1.08-1.46-.52-.55-1.04-1.12-1.64-1.58-.48-.37-.94-.77-1.48-1.05-.38-.19-.73-.42-1.14-.57-.29-.1-.56-.32-.87-.44-.59-.22-1.18-.44-1.79-.63-.16-.05-.32-.02-.48-.08-.55-.24-1.14-.32-1.74-.33-.15,0-.3-.02-.45-.06-.35-.11-.71-.17-1.08-.17-.41,0-.81,0-1.28,0Zm-.39,10.44c-.55-.04-1.09,.06-1.62,.15-.19,.03-.23,.12-.19,.29,.02,.06,.05,.12,.08,.17,.4,.68,.83,1.33,1.39,1.88,.59,.58,1.23,1.04,2.08,1.17,.57,.09,1.08-.04,1.5-.45,.22-.22,.36-.49,.36-.81,0-.49-.12-.94-.47-1.31-.34-.36-.68-.71-1.18-.83-.64-.16-1.28-.33-1.94-.27Z"/>
  <path class="cls-1" d="M46.63,74.93c.04,.89-.14,1.75-.44,2.57-.39,1.05-.89,2.05-1.58,2.93-.41,.52-.82,1.06-1.34,1.5-.07,.06-.11,.14-.17,.21-.25,.28-.54,.28-.76-.02-.41-.55-.83-1.08-1.23-1.63-.29-.39-.6-.78-.9-1.17-.38-.48-.68-1-.95-1.55-.23-.44-.37-.91-.53-1.38-.47-1.36-.36-2.68,.3-3.94,.31-.58,.7-1.11,1.26-1.5,1.09-.77,2.3-.94,3.54-.53,.86,.28,1.56,.85,2.05,1.65,.35,.56,.57,1.15,.69,1.79,.07,.35,.05,.71,.07,1.06Zm-2.42,.03c0-.08,0-.15,0-.23-.06-.76-.28-1.44-.97-1.88-.33-.21-1.05-.21-1.35-.01-.48,.33-.78,.77-.95,1.32-.11,.35-.15,.71-.02,1.05,.22,.57,.3,1.19,.65,1.73,.32,.5,.64,1,1.01,1.46,.19,.24,.32,.23,.45-.03,.18-.37,.43-.69,.59-1.06,.33-.75,.53-1.53,.59-2.34Z"/>
  <path class="cls-1" d="M42.6,13.87s.05,.05,.08,.08c.04,.36,.34,.55,.54,.81,.48,.62,.95,1.25,1.32,1.95,.45,.84,.79,1.72,.91,2.68,.08,.63,.05,1.24-.09,1.85-.2,.85-.65,1.59-1.29,2.19-.16,.15-.31,.29-.49,.42-.42,.29-.88,.44-1.36,.56-.44,.11-.89,.13-1.32,.05-.81-.16-1.54-.49-2.13-1.09-.73-.74-1.13-1.63-1.29-2.65-.02-.1,.01-.21-.1-.27,0-.17,0-.34,0-.52,.05-.11,.05-.23,0-.34,0-.1,0-.19,0-.29,.04-.03,.07-.07,.08-.12,.1-.8,.3-1.56,.63-2.3,.28-.63,.55-1.26,.93-1.83,.31-.46,.62-.92,.99-1.34,.35-.4,.7-.81,1.14-1.11,.22-.15,.28-.14,.44,.06,.13,.17,.25,.35,.39,.52,.2,.24,.36,.52,.62,.7Zm.51,6.27c0-.74-.17-1.37-.47-1.96-.32-.63-.72-1.21-1.16-1.77-.19-.24-.33-.25-.49,.02-.25,.4-.48,.8-.67,1.23-.26,.59-.34,1.22-.51,1.82-.08,.28-.06,.58,0,.87,.05,.22,.17,.42,.23,.64,.14,.5,.47,.84,.94,1.02,.46,.18,.95,.15,1.33-.18,.52-.45,.85-1.03,.8-1.69Z"/>
  <path class="cls-1" d="M68.09,28.74c.51,.01,1.04,.01,1.59,.12,.47,.09,.94,.15,1.41,.26,.22,.05,.41,.18,.66,.17,.15,0,.21,.12,.16,.27-.08,.2-.13,.41-.22,.6-.17,.34-.35,.67-.46,1.03-.09,.29-.22,.56-.33,.84-.45,1.15-.99,2.27-1.79,3.22-.41,.49-.85,.96-1.38,1.29-.51,.32-1.06,.59-1.7,.57-.06,0-.14,0-.19,.02-.31,.18-.64,.12-.97,.13-.04,0-.08,0-.11,0-.49-.17-1.03-.13-1.49-.38-.42-.22-.8-.5-1.11-.85-.59-.66-.93-1.43-.95-2.34-.02-1.03,.32-1.93,.98-2.72,.43-.51,.94-.91,1.49-1.26,.08-.05,.16-.08,.25-.08,.06,0,.12-.01,.18-.05,.66-.47,1.43-.59,2.2-.71,.3-.05,.59-.15,.89-.15,.29,0,.58,0,.91,0Zm-.17,2.23c-.87,0-1.71,.16-2.52,.49-.81,.32-1.5,.8-1.84,1.65-.13,.33-.17,.67,0,.99,.28,.49,.68,.8,1.27,.86,.27,.03,.53,0,.79-.04,.67-.09,1.13-.54,1.58-.98,.2-.2,.34-.47,.51-.71,.42-.55,.65-1.2,.95-1.82,.14-.3,.04-.42-.28-.44-.15,0-.3,0-.46,0Z"/>
  <path class="cls-1" d="M22.78,61.29c.13,.57-.13,1.17-.43,1.74-.33,.64-.8,1.16-1.38,1.59-.91,.67-1.94,1.07-3.05,1.24-.81,.13-1.64,.19-2.46,.13-.89-.07-1.79-.08-2.65-.37-.08-.03-.17-.04-.26-.07-.5-.16-.55-.25-.31-.72,.16-.33,.27-.67,.41-1.01,.16-.38,.37-.74,.51-1.14,.16-.45,.37-.89,.58-1.32,.2-.42,.45-.81,.72-1.2,.3-.43,.62-.83,.98-1.2,.54-.56,1.18-.96,1.89-1.23,.31-.12,.64-.24,1-.2,.15,.02,.3,.01,.45-.05,.11-.04,.22-.03,.34,0,.08,.03,.17,.04,.26,.04,1.09,.08,1.97,.54,2.67,1.4,.32,.39,.47,.83,.68,1.26,.05,.1,.05,.2,.05,.3,0,.23,0,.46,0,.8Zm-6.8,2.44s0,0,0,0c.11,.01,.23,.04,.34,.03,.92-.07,1.83-.16,2.68-.6,.65-.34,1.18-.78,1.44-1.48,.27-.7-.15-1.51-.69-1.74-.83-.36-1.62-.19-2.29,.33-1.06,.81-1.63,1.98-2.12,3.18-.07,.17,0,.26,.18,.28,.15,.01,.3,0,.46,0Z"/>
  <path class="cls-1" d="M16.75,21.8c.47,0,.88,0,1.28,0,.37,0,.73,.06,1.08,.17,.15,.05,.3,.06,.45,.06,.6,0,1.18,.09,1.74,.33,.16,.07,.32,.03,.48,.08,.6,.19,1.19,.41,1.79,.63,.31,.11,.58,.33,.87,.44,.41,.15,.76,.38,1.14,.57,.54,.28,1,.68,1.48,1.05,.61,.46,1.12,1.03,1.64,1.58,.41,.44,.77,.93,1.08,1.46,.19,.33,.42,.64,.53,1,.13,.42,.44,.76,.49,1.21,0,.01,0,.02,.01,.04,.33,.63,.34,1.34,.54,2,.08,.26,.04,.52,.09,.79,.13,.75,.14,1.52,.08,2.27-.06,.8-.14,1.6-.34,2.39-.08,.32-.18,.62-.34,.91-.02,.03-.06,.07-.05,.1,.05,.41-.28,.67-.39,1.01-.11,.35-.27,.68-.44,1.01-.26,.51-.58,.99-.92,1.46-.44,.6-.92,1.14-1.45,1.65-.5,.48-1.01,.95-1.62,1.3-.38,.22-.73,.5-1.12,.71-.55,.29-1.1,.55-1.68,.76-.74,.26-1.5,.46-2.27,.59-.41,.07-.83,.1-1.24,.12-.35,.02-.71,0-1.07,0-1.17,0-2.29-.28-3.41-.62-.6-.18-1.15-.45-1.71-.7-.45-.21-.9-.45-1.32-.73-.41-.27-.84-.51-1.22-.83-.5-.42-1.04-.79-1.53-1.23-.37-.34-.76-.67-1.1-1.05-.51-.57-1.06-1.11-1.5-1.76-.29-.42-.63-.82-.92-1.25-.32-.47-.63-.94-.94-1.41-.22-.34-.39-.7-.6-1.05-.21-.35-.5-.67-.54-1.1,0-.02-.02-.05-.03-.07-.37-.42-.47-.97-.74-1.43-.21-.37-.34-.78-.57-1.15-.19-.31-.28-.68-.4-1.02-.33-.95-.65-1.91-.97-2.86-.27-.79-.42-1.61-.67-2.41-.15-.48-.17-.99-.25-1.49-.02-.15,.07-.25,.2-.29,.29-.09,.55-.22,.86-.27,.43-.08,.87-.16,1.29-.3,.37-.13,.77-.16,1.14-.29,.48-.16,.97-.22,1.46-.34,.42-.1,.83-.33,1.29-.27,.12,.01,.21-.07,.32-.11,.22-.08,.38,0,.44,.22,.14,.56,.31,1.11,.39,1.69,0,.04,0,.08,.01,.11,.26,.54,.37,1.13,.55,1.69,.17,.52,.34,1.03,.53,1.54,.2,.53,.31,1.09,.61,1.59,.18,.31,.3,.67,.42,1.01,.14,.42,.38,.8,.54,1.21,.12,.31,.31,.6,.48,.9,.34,.6,.7,1.19,1.07,1.78,.27,.43,.55,.85,.89,1.22,.21,.23,.39,.49,.61,.72,.28,.29,.55,.58,.88,.82,.35,.25,.7,.5,1.04,.76,.16,.12,.36,.17,.54,.25,.75,.33,1.49,.67,2.33,.78,.53,.07,1.06,.07,1.59,.05,.4-.02,.8-.11,1.17-.29,.39-.2,.81-.35,1.13-.68,.38-.39,.79-.73,1.04-1.23,.29-.59,.59-1.17,.76-1.81,.17-.65,.14-1.3,.01-1.95-.1-.5-.23-.99-.46-1.44-.32-.62-.71-1.2-1.25-1.66-.43-.37-.92-.64-1.41-.93-.64-.38-1.36-.51-2.05-.73-.5-.16-1.01-.17-1.53-.23-.74-.09-1.49-.04-2.21,.1-.77,.15-1.58,.26-2.29,.62-.31,.16-.61,.28-.94,.36-.19,.04-.33,.21-.54,.26-.32,.08-.5,0-.61-.33-.24-.66-.5-1.31-.7-1.99-.18-.63-.44-1.24-.65-1.86-.19-.59-.4-1.17-.62-1.75-.02-.06-.04-.12-.06-.18-.12-.4-.03-.6,.34-.76,.44-.19,.89-.35,1.36-.48,.36-.1,.71-.25,1.08-.31,.9-.15,1.78-.48,2.71-.46,.04,0,.08,0,.11,0,.91-.28,1.85-.21,2.72-.22Zm2.31,23.36c1.06,.12,2.05-.11,3.01-.43,.92-.31,1.8-.75,2.61-1.31,.15-.1,.3-.19,.44-.3,.51-.4,.97-.85,1.41-1.33,.32-.34,.61-.7,.87-1.09,.44-.64,.76-1.35,1.03-2.07,.18-.48,.5-.9,.56-1.44,.09-.79,.23-1.58,.25-2.38,.02-.81-.12-1.59-.25-2.38-.04-.23,.02-.47-.09-.67-.31-.6-.45-1.26-.77-1.86-.36-.67-.79-1.29-1.28-1.87-.45-.52-.96-.97-1.52-1.37-.47-.33-.95-.67-1.47-.94-.41-.21-.82-.41-1.24-.58-.49-.19-.98-.42-1.51-.51-.25-.04-.5-.11-.73-.2-.32-.13-.66-.18-1-.2-.19-.01-.38-.03-.57-.06-.76-.09-1.52-.15-2.28-.15-.33,0-.66,.04-.99,.07-.62,.06-1.23,.13-1.85,.18-.3,.02-.57,.13-.85,.19-.4,.09-.8,.15-1.19,.24-.35,.08-.47,.27-.36,.57,.2,.55,.42,1.09,.58,1.65,.08,.29,.19,.34,.45,.24,.46-.18,.96-.25,1.43-.38,.31-.09,.64-.16,.97-.18,1.02-.07,2.05-.13,3.08-.03,.93,.09,1.82,.33,2.69,.63,.57,.2,1.13,.45,1.64,.78,.45,.28,.91,.55,1.31,.9,.6,.53,1.13,1.12,1.56,1.8,.3,.48,.54,1,.73,1.54,.05,.14,.02,.3,.09,.45,.19,.45,.24,.94,.29,1.41,.1,.95,0,1.89-.33,2.8-.33,.92-.72,1.8-1.34,2.58-.44,.56-.93,1.07-1.53,1.47-.49,.32-.98,.66-1.55,.79-.66,.15-1.31,.4-2.01,.37-.61-.02-1.22,0-1.81-.17-.15-.04-.29-.08-.45-.1-.42-.04-.82-.17-1.21-.32-.83-.32-1.62-.7-2.37-1.2-.82-.55-1.53-1.2-2.18-1.93-.31-.35-.6-.72-.88-1.09-.33-.43-.65-.87-.93-1.33-.75-1.19-1.4-2.45-1.95-3.74-.14-.34-.3-.67-.45-1.01-.24-.56-.4-1.15-.65-1.7-.19-.41-.33-.85-.45-1.29-.16-.6-.36-1.19-.55-1.78-.1-.33-.17-.34-.51-.26-.58,.14-1.16,.28-1.74,.41-.32,.07-.44,.22-.34,.54,.07,.23,.13,.46,.13,.71,0,.06,.03,.13,.06,.18,.15,.24,.22,.51,.29,.78,.21,.84,.58,1.62,.84,2.45,.22,.68,.55,1.33,.86,1.98,.41,.87,.82,1.73,1.31,2.56,.26,.44,.49,.89,.76,1.31,.71,1.12,1.51,2.19,2.41,3.18,.83,.91,1.74,1.74,2.73,2.47,.2,.15,.39,.33,.61,.44,.68,.36,1.33,.79,2.04,1.09,.58,.25,1.17,.5,1.79,.63,.78,.16,1.57,.35,2.35,.22Z"/>
</svg>