<?xml version="1.0" encoding="UTF-8"?>
<svg id="Layer_2" data-name="Layer 2" xmlns="http://www.w3.org/2000/svg" viewBox="0 0 98.62 22.45">
  <defs>
    <style>
      .cls-1 {
        fill: #f05b2c;
      }

      .cls-2 {
        fill: #f0592a;
      }

      .cls-3 {
        fill: #f69622;
      }

      .cls-4 {
        fill: #f05929;
      }

      .cls-5 {
        fill: #f05a2b;
      }
    </style>
  </defs>
  <g id="Layer_1-2" data-name="Layer 1">
    <g>
      <path class="cls-4" d="M12.09,3.13c-1.22,0-2.43-.04-3.65,0-2.11,.08-3.68,1.08-4.72,2.91-.46,.81-.67,1.71-.67,2.64,.02,2.86,2.08,5.03,4.6,5.47,.34,.06,.68,.08,1.02,.08,1.07,0,2.15,0,3.22,0,1.02,0,1.76-.71,1.9-1.78,.12-.97-.46-1.88-1.37-2.14-.23-.07-.47-.09-.72-.09-1.54,0-3.09,0-4.63,0-.15,0-.2-.03-.2-.19,0-.89,0-1.79,0-2.68,0-.14,.02-.19,.18-.19,1.61,0,3.22,0,4.84,0,2.39,.01,4.49,1.81,4.89,4.17,.46,2.74-1.23,5.25-3.94,5.85-.38,.08-.77,.11-1.16,.11-.99,0-1.98,0-2.98,0-3.96,0-7.1-2.51-8.24-5.82-1.16-3.36-.05-7.25,2.73-9.47C4.68,.81,6.38,.16,8.29,.08c.72-.03,1.44-.01,2.16-.01,1.84,0,3.68,0,5.53,0,.2,0,.23,.06,.23,.24,0,.87,0,1.75,0,2.62,0,.17-.05,.2-.21,.2-1.3,0-2.6,0-3.91,0,0,0,0,0,0,0Z"/>
      <path class="cls-4" d="M98.62,17.35c-1.13,0-2.23,0-3.33,0-.11,0-.15-.05-.19-.14-.53-1.02-1.05-2.04-1.6-3.04-.5-.92-.96-1.86-1.52-2.74-.21-.33-.44-.65-.74-.9-.22-.19-.46-.28-.75-.28-.71,.02-1.41-.04-2.12,.03-.98,.1-1.76,.97-1.76,1.96,0,3.33,0,6.66,0,9.99,0,.2-.06,.23-.24,.23-.89,0-1.77,0-2.66,0-.13,0-.18-.03-.18-.17,0-3.33,0-6.66,0-9.99,0-2.5,1.72-4.55,4.16-5.01,.29-.05,.58-.08,.87-.08,1.39,0,2.78,0,4.17,0,1.21,0,2.01-.9,1.97-2.07-.04-1.24-.85-1.96-2.1-1.96-2.82,0-5.64,0-8.47,0-.16,0-.32,0-.48,0-.09,0-.12-.03-.12-.12,0-.94,0-1.88,0-2.83,0-.08,.03-.12,.11-.11,.05,0,.1,0,.15,0,2.96,0,5.92,0,8.87,0,2.63,0,4.65,1.74,5.04,4.36,.35,2.33-.78,4.39-2.92,5.35-.18,.08-.12,.15-.06,.26,1.26,2.36,2.52,4.73,3.78,7.09,.03,.05,.05,.11,.09,.19Z"/>
      <path class="cls-4" d="M57.1,17.34c-1.59,0-3.18,.02-4.76,0-.96-.01-1.89-.2-2.74-.66-2.04-1.12-2.53-3.74-1.05-5.59,.62-.77,1.41-1.36,2.27-1.84,1.66-.94,3.34-1.84,5.01-2.77,.86-.47,1.7-.97,2.43-1.63,.2-.18,.4-.38,.53-.62,.23-.39,.13-.7-.3-.86-.43-.17-.89-.2-1.35-.2-3.08,0-6.15,0-9.23,0-.18,0-.22-.04-.22-.22,.01-.89,0-1.77,0-2.66,0-.16,.04-.19,.2-.19,3.07,0,6.14,0,9.21,0,1.06,0,2.09,.14,3.04,.65,1.23,.65,1.89,1.68,1.96,3.07,.06,1.15-.39,2.1-1.17,2.91-.73,.76-1.62,1.31-2.53,1.81-1.66,.92-3.33,1.83-4.99,2.75-.66,.36-1.29,.77-1.86,1.26-.21,.18-.41,.38-.55,.62-.23,.39-.14,.7,.29,.89,.43,.19,.89,.22,1.35,.22,3.08,0,6.15,0,9.23,0,.29,0,.25-.04,.25,.26,0,.87,0,1.74,0,2.6,0,.15-.03,.2-.19,.2-1.61,0-3.22,0-4.84,0h0Z"/>
      <path class="cls-3" d="M63.43,17.33c.37-.57,.72-1.12,1.08-1.67,2.24-3.46,4.48-6.92,6.72-10.37,.73-1.12,1.48-2.22,2.39-3.2,.81-.86,1.73-1.56,2.89-1.87,.79-.21,1.6-.32,2.41-.12,1.05,.26,1.7,1,2.13,1.95,.34,.75,.49,1.54,.55,2.36,.04,.5,.03,1,.03,1.5,0,5.44,0,10.87,0,16.31,0,.17-.03,.23-.22,.23-.87-.01-1.75-.01-2.62,0-.19,0-.23-.04-.23-.23,0-5.75,0-11.51,0-17.26,0-.37-.03-.74-.12-1.1-.18-.68-.64-.93-1.31-.73-.55,.17-.96,.54-1.33,.94-.65,.69-1.11,1.52-1.62,2.31-2.34,3.61-4.68,7.23-7.02,10.84-.05,.07-.09,.13-.2,.13-1.15,0-2.31,0-3.46,0-.01,0-.02,0-.06-.02Z"/>
      <path class="cls-4" d="M18.7,5.6c0-1.77,0-3.53,0-5.3,0-.17,.04-.21,.21-.2,.89,0,1.77,0,2.66,0,.16,0,.19,.04,.19,.2,0,3.34,0,6.68,0,10.02,0,2.03,1.34,3.64,3.34,3.93,2.1,.31,3.88-1.11,4.29-3,.07-.31,.09-.62,.09-.94,0-3.32,0-6.65,0-9.97,0-.28-.02-.24,.24-.24,.87,0,1.75,0,2.62,0,.15,0,.2,.03,.2,.19,0,3.41,0,6.82,0,10.23-.02,3.32-2.5,6.22-5.76,6.73-2.35,.37-4.4-.29-6.08-1.97-1.31-1.31-1.97-2.93-1.98-4.8,0-1.62,0-3.25,0-4.87Z"/>
      <path class="cls-4" d="M34.38,6.36c0-2.03,0-4.05,0-6.08,0-.15,.03-.21,.2-.21,.89,.01,1.77,.01,2.66,0,.17,0,.2,.05,.2,.21,0,3.95,0,7.91,0,11.86,0,1.06,.66,1.86,1.7,2.07,.11,.02,.23,.02,.35,.02,2.06,0,4.12,0,6.18,0,.16,0,.21,.04,.21,.21,0,.89,0,1.77,0,2.66,0,.17-.05,.2-.21,.2-2.04,0-4.08,0-6.12,0-2.37,0-4.34-1.5-4.97-3.75-.12-.42-.18-.85-.18-1.28,0-1.96,0-3.93,0-5.89Z"/>
      <path class="cls-2" d="M62.32,20.87c0-.43,0-.87,0-1.3,0-.12,.03-.16,.16-.16,.61,0,1.22,0,1.82,0,.13,0,.17,.03,.17,.17,0,.3,0,.3-.3,.3-.38,0-.76,0-1.13,0-.12,0-.17,.02-.16,.15,.01,.19-.06,.44,.03,.56,.1,.12,.36,.03,.55,.04,.23,0,.46,0,.69,0,.12,0,.15,.03,.15,.15-.01,.38,.04,.3-.3,.31-.31,0-.62,.01-.93,0-.16,0-.2,.05-.19,.2,.01,.15,.01,.3,0,.45,0,.13,.03,.17,.16,.17,.43,0,.86,0,1.28,0,.18,0,.23,.06,.21,.22,0,.04,0,.09,0,.13,0,.09-.03,.12-.12,.12-.66,0-1.31,0-1.97,0-.11,0-.12-.05-.11-.14,0-.45,0-.89,0-1.34Z"/>
      <path class="cls-4" d="M68.94,20.87c0-.43,0-.87,0-1.3,0-.12,.04-.16,.16-.16,.6,0,1.2,0,1.8,0,.14,0,.2,.03,.17,.18,0,.05,0,.1,0,.15,.02,.12-.03,.15-.15,.14-.43,0-.87,0-1.3,0-.12,0-.15,.03-.15,.15,.01,.19-.06,.44,.03,.56,.1,.13,.36,.03,.55,.04,.23,0,.46,0,.69,0,.11,0,.15,.03,.15,.14-.01,.38,.04,.3-.3,.31-.32,0-.63,0-.95,0-.12,0-.18,.03-.17,.16,.01,.17,0,.33,0,.5,0,.11,.04,.15,.15,.15,.44,0,.88,0,1.32,0,.14,0,.21,.03,.19,.18,0,.05,0,.11,0,.17,0,.08-.02,.11-.1,.11-.66,0-1.33,0-1.99,0-.12,0-.1-.08-.1-.15,0-.44,0-.88,0-1.32Z"/>
      <path class="cls-1" d="M52.96,22.38c-.38,0-.7-.07-1.01-.23-.13-.07-.17-.15-.08-.28,.02-.03,.03-.07,.04-.1,.04-.12,.08-.16,.22-.08,.34,.21,.72,.29,1.12,.2,.17-.04,.32-.11,.34-.32,.02-.2-.12-.29-.28-.34-.19-.07-.39-.11-.59-.16-.12-.03-.24-.07-.35-.11-.29-.12-.49-.32-.5-.67-.01-.36,.15-.63,.47-.77,.54-.24,1.07-.19,1.6,.06,.08,.04,.09,.08,.06,.16-.11,.31-.11,.31-.42,.2-.27-.1-.55-.13-.84-.06-.17,.04-.29,.13-.31,.32-.01,.19,.11,.28,.27,.33,.2,.07,.4,.11,.61,.17,.14,.04,.27,.08,.4,.14,.26,.12,.43,.31,.45,.61,.02,.33-.11,.58-.39,.75-.25,.16-.53,.2-.79,.18Z"/>
      <path class="cls-1" d="M72.65,22.38c-.37,0-.7-.07-1.01-.23-.13-.07-.17-.15-.09-.28,.02-.03,.03-.07,.04-.1,.04-.14,.1-.15,.23-.07,.34,.2,.71,.28,1.11,.2,.17-.04,.32-.11,.34-.31,.02-.21-.13-.3-.29-.35-.2-.07-.41-.11-.61-.16-.14-.04-.27-.08-.4-.14-.51-.26-.58-.94-.13-1.3,.46-.37,1.33-.31,1.8-.03,.04,.02,.07,.05,.04,.1-.01,.02-.02,.05-.03,.07-.11,.28-.11,.28-.39,.17-.26-.1-.53-.13-.8-.08-.23,.04-.35,.17-.36,.34-.01,.22,.15,.3,.32,.35,.22,.07,.44,.12,.66,.18,.1,.03,.2,.06,.3,.11,.26,.12,.43,.31,.45,.61,.02,.33-.11,.58-.38,.75-.25,.16-.53,.2-.8,.18Z"/>
      <path class="cls-1" d="M50.38,22.38c-.72,0-1.29-.39-1.49-1.01-.21-.64,0-1.33,.53-1.71,.57-.41,1.45-.39,1.96,.03,.18,.15,.18,.15,.01,.31-.03,.03-.06,.05-.08,.08-.08,.09-.14,.1-.24,.01-.41-.34-1.02-.32-1.39,.03-.39,.37-.42,1.01-.08,1.42,.33,.4,1.01,.49,1.41,.15,.18-.15,.26-.09,.38,.04,.17,.18,.18,.17-.01,.33-.29,.24-.63,.33-1,.32Z"/>
      <path class="cls-5" d="M66.27,20.88c0-.43,0-.87,0-1.3,0-.12,.02-.17,.16-.17,.61,0,1.22,0,1.82,0,.13,0,.17,.04,.17,.17,0,.3,0,.3-.3,.3-.38,0-.77,0-1.15,0-.12,0-.15,.03-.14,.15,0,.2,0,.4,0,.59,0,.11,.04,.14,.14,.13,.37,0,.74,0,1.12,0,.13,0,.17,.04,.16,.17,0,.31,0,.31-.31,.31-.32,0-.63,0-.95,0-.12,0-.16,.03-.16,.15,0,.28,0,.56,0,.84,0,.09-.02,.13-.12,.13-.43,.02-.43,.02-.43-.42,0-.35,0-.69,0-1.04Z"/>
      <path class="cls-4" d="M59.67,20.88c0-.44,0-.88,0-1.32,0-.11,.03-.15,.15-.15,.62,0,1.24,0,1.86,0,.11,0,.13,.04,.13,.14,0,.32,0,.32-.32,.32-.38,0-.76,0-1.13,0-.11,0-.16,.02-.15,.14,0,.18,.01,.36,0,.54-.01,.15,.03,.21,.19,.2,.35-.01,.69,0,1.04,0,.14,0,.21,.03,.19,.18,0,.05,0,.1,0,.15,.02,.12-.04,.14-.15,.14-.35,0-.71,0-1.06,0-.18,0-.22,.06-.21,.22,.01,.24,0,.48,0,.72,0,.13-.02,.18-.17,.18-.38,0-.38,0-.38-.38,0-.36,0-.72,0-1.08Z"/>
      <path class="cls-5" d="M75.18,19.41c.37,0,.73,0,1.1,0,.12,0,.16,.03,.16,.15,0,.32,0,.32-.31,.32-.17,0-.35,0-.52,0-.13,0-.15,.04-.15,.16,0,.71,0,1.42,0,2.14,0,.14-.03,.18-.17,.18-.38,0-.38,0-.38-.37,0-.64,0-1.28,0-1.91,0-.15-.05-.19-.19-.18-.22,.01-.45,0-.67,0-.09,0-.11-.03-.12-.12-.02-.35-.02-.35,.33-.35,.3,0,.61,0,.91,0Z"/>
      <path class="cls-4" d="M55.83,20.89c0-.43,0-.87,0-1.3,0-.12,.03-.17,.16-.17,.38,0,.38,0,.38,.37,0,.64,0,1.29,0,1.93,0,.13,.04,.17,.17,.17,.4,0,.79,0,1.19,0,.14,0,.2,.03,.17,.17,0,.05,0,.1,0,.15,.02,.12-.04,.14-.15,.14-.59,0-1.18,0-1.77,0-.12,0-.16-.03-.16-.15,0-.43,0-.87,0-1.3Z"/>
      <path class="cls-1" d="M47.7,20.88c0-.43,0-.87,0-1.3,0-.12,.02-.17,.16-.17,.4,0,.4,0,.4,.4,0,.78,0,1.56,0,2.34,0,.15-.03,.2-.19,.2-.37-.01-.37,0-.37-.37s0-.73,0-1.1Z"/>
      <path class="cls-4" d="M58.88,20.9c0,.43,0,.85,0,1.28,0,.12-.03,.16-.15,.16-.39,0-.39,0-.39-.38,0-.79,0-1.57,0-2.36,0-.14,.03-.19,.18-.19,.37,0,.37,0,.37,.36,0,.38,0,.76,0,1.13Z"/>
    </g>
  </g>
</svg>