<?xml version="1.0" encoding="UTF-8"?>
<svg id="Layer_2" data-name="Layer 2" xmlns="http://www.w3.org/2000/svg" viewBox="0 0 568.05 137.75">
  <defs>
    <style>
      .cls-1 {
        fill: #af6301;
      }
    </style>
  </defs>
  <g id="Layer_1-2" data-name="Layer 1">
    <g>
      <path class="cls-1" d="M57.88,137.75c-8.74,0-16.6-1.26-23.57-3.78-6.98-2.52-13.05-6.33-18.21-11.43-5.16-5.1-9.13-11.77-11.92-20.01C1.39,94.28,0,84.71,0,73.8s1.66-19.91,4.97-28.41c3.31-8.5,7.86-15.53,13.63-21.07,5.78-5.54,12.53-9.79,20.27-12.75,7.74-2.96,16.1-4.44,25.07-4.44,19.94,0,34.6,3.72,43.98,11.17l-.88,19.62c-9.91-9.15-22.9-13.72-38.97-13.72-6.39,0-12.51,1.1-18.34,3.3-5.84,2.2-11.07,5.32-15.7,9.37-4.63,4.05-8.31,9.27-11.04,15.66-2.73,6.39-4.09,13.49-4.09,21.29,0,14.43,3.56,25.83,10.69,34.22,7.12,8.39,16.55,12.58,28.28,12.58,4.87,0,9.41-1.03,13.63-3.08-5.63-5.51-10.06-11.74-13.28-18.69-3.23-6.95-4.84-14.18-4.84-21.68,0-8.56,2.77-15.23,8.31-20.01,5.54-4.78,12.48-7.17,20.8-7.17s15.41,2.39,21.07,7.17c5.66,4.78,8.49,11.45,8.49,20.01,0,6.98-.97,13.94-2.9,20.89-1.94,6.95-4.87,13.21-8.8,18.78,5.51,2.52,10.73,3.78,15.66,3.78v17.15c-9.44,0-18.97-2.73-28.59-8.18-8.44,5.45-18.3,8.18-29.55,8.18Zm13.46-59.11c0,4.63,1.25,9.35,3.74,14.16,2.49,4.81,5.82,9.21,9.98,13.19,5.98-7.97,8.97-17.09,8.97-27.36,0-3.87-1-6.9-2.99-9.1-1.99-2.2-4.84-3.3-8.53-3.3s-6.41,1.09-8.31,3.25c-1.91,2.17-2.86,5.22-2.86,9.15Z"/>
      <path class="cls-1" d="M220.69,40.99v94.56h-18.91v-12.75h-1.41c-2.52,4.28-6.42,7.84-11.7,10.69-5.28,2.84-11.52,4.27-18.74,4.27-5.92,0-11.57-1.23-16.93-3.69-5.37-2.46-9.84-6.21-13.41-11.26-3.58-5.04-5.37-10.88-5.37-17.5V40.99h18.91v59.46c0,3.64,.69,6.86,2.07,9.68,1.38,2.81,3.21,5.01,5.5,6.6,2.29,1.58,4.75,2.77,7.39,3.56s5.39,1.19,8.27,1.19c7.09,0,13.11-2.23,18.03-6.68,4.93-4.46,7.39-9.73,7.39-15.83V40.99h18.91Z"/>
      <path class="cls-1" d="M281.74,135.55c-5.22,0-9.93-.53-14.12-1.58-4.19-1.06-8.03-2.74-11.52-5.06-3.49-2.32-6.19-5.57-8.09-9.76-1.91-4.19-2.86-9.19-2.86-15V0h18.91V99.31c0,12.73,5.89,19.09,17.68,19.09v17.15Z"/>
      <path class="cls-1" d="M293,123.32l52.07-63.42v-1.85h-51.11v-17.06h78.9v12.58l-54.62,64.83h53.3v17.15h-78.55v-12.23Z"/>
      <path class="cls-1" d="M428.28,137.75c-12.73,0-22.75-2.84-30.08-8.53-7.33-5.69-11-13.31-11-22.87,0-5.51,1.92-10.54,5.76-15.09,3.84-4.54,8.85-8.03,15.04-10.47,6.19-2.43,12.77-3.65,19.75-3.65,12.14,0,22.34,2.61,30.61,7.83-.12-4.1-.79-7.87-2.02-11.3-1.23-3.43-3.03-6.52-5.41-9.28-2.37-2.76-5.51-4.93-9.41-6.51-3.9-1.58-8.37-2.4-13.41-2.46-6.63-.06-12.7,1.38-18.21,4.31-5.51,2.93-10.2,6.83-14.07,11.7l-10.56-13.72c4.34-5.63,10.14-10.22,17.42-13.77,7.27-3.55,15.8-5.32,25.6-5.32,15.19,0,27.03,4.16,35.54,12.49,8.5,8.33,12.75,19.06,12.75,32.19,0,6.98-.79,13.63-2.37,19.97,4.16,8.74,5.98,19.5,5.45,32.28h-17.15c.18-3.52,.18-6.89,0-10.12-8.21,8.21-19.62,12.31-34.22,12.31Zm-22.69-31.4c0,4.81,2.11,8.53,6.33,11.17s9.68,3.96,16.36,3.96c14.01,0,23.13-5.51,27.36-16.54-6.22-8.68-15.39-13.02-27.53-13.02-6.45,0-11.82,1.36-16.1,4.09-4.28,2.73-6.42,6.17-6.42,10.34Z"/>
      <path class="cls-1" d="M500.14,135.55V40.99h18.38v15.31h.88c2.52-4.81,6.65-8.96,12.4-12.45,5.75-3.49,12.84-5.23,21.29-5.23,4.63,0,9.62,.79,14.95,2.37v17.06c-1.88-.7-4.87-1.32-8.97-1.85-4.11-.53-8.44-.56-13.02-.09-4.75,.41-9.12,1.67-13.11,3.78-3.99,2.11-7.3,5.16-9.94,9.15-2.64,3.99-3.96,8.56-3.96,13.72v52.78h-18.91Z"/>
    </g>
  </g>
</svg>