<?xml version="1.0" encoding="UTF-8"?>
<svg id="Layer_2" data-name="Layer 2" xmlns="http://www.w3.org/2000/svg" viewBox="0 0 380.12 70.17">
  <defs>
    <style>
      .cls-1, .cls-2 {
        fill: #fff;
      }

      .cls-2 {
        opacity: .5;
      }
    </style>
  </defs>
  <g id="Layer_1-2" data-name="Layer 1">
    <g>
      <path class="cls-1" d="M.09,6.21C.38,1.54,4.53,.18,8.35,.18s7.86,1.51,7.86,6.18c0,4.9-3.94,6.15-8.03,6.15-2,0-5.05,.49-5.05,3.1v2.09h13.08v3.05H0v-5.13c0-4.64,4.21-5.98,8.15-5.98,1.83,0,4.87-.58,4.87-3.22s-2.2-3.34-4.67-3.42c-2.35,0-4.96,.84-5.02,3.22H.09Z"/>
      <path class="cls-1" d="M19.44,8.82c0-11.78,17-11.75,17,0v3.54c0,11.75-17,11.78-17,0v-3.54Zm3.25,3.54c0,7.72,10.5,7.72,10.5,0v-3.54c0-7.6-10.5-7.69-10.5,0v3.54Z"/>
      <path class="cls-1" d="M39.75,6.21C40.04,1.54,44.19,.18,48.01,.18s7.86,1.51,7.86,6.18c0,4.9-3.94,6.15-8.03,6.15-2,0-5.05,.49-5.05,3.1v2.09h13.08v3.05h-16.21v-5.13c0-4.64,4.21-5.98,8.15-5.98,1.83,0,4.87-.58,4.87-3.22s-2.2-3.34-4.67-3.42c-2.35,0-4.96,.84-5.02,3.22h-3.25Z"/>
      <path class="cls-1" d="M62.67,10.13c1.1-1.62,3.34-2.32,5.16-2.32,4.03,0,8.27,1.71,8.27,6.61,0,4.52-4.26,6.61-8.3,6.61s-8.35-2.09-8.35-6.67V6.47C59.45,2.12,63.6,.09,67.69,.09c4.32,0,8.06,1.74,8.12,5.77h-3.19c-.06-1.94-2.38-2.96-4.84-2.96s-5.11,1.07-5.11,3.54v3.68Zm10.18,4.29c0-2.49-2.38-3.77-5.02-3.77s-5.16,1.25-5.13,3.77c0,2.58,2.49,3.68,5.1,3.68s5.05-1.07,5.05-3.68Z"/>
      <g>
        <path class="cls-1" d="M62.95,45.62h16.66v4.26h-16.66v-4.26Z"/>
        <g>
          <path class="cls-1" d="M0,42.19c0-18.58,26.82-18.54,26.82,0v5.58c0,18.54-26.82,18.58-26.82,0v-5.58Zm5.13,5.58c0,12.17,16.57,12.17,16.57,0v-5.58c0-11.99-16.57-12.13-16.57,0v5.58Z"/>
          <path class="cls-1" d="M32.05,38.07c.46-7.37,7-9.52,13.04-9.52s12.4,2.38,12.4,9.75c0,7.73-6.22,9.7-12.68,9.7-3.16,0-7.96,.78-7.96,4.9v3.29h20.64v4.81H31.91v-8.1c0-7.32,6.64-9.43,12.86-9.43,2.88,0,7.69-.92,7.69-5.08s-3.48-5.26-7.37-5.4c-3.71,0-7.83,1.33-7.92,5.08h-5.13Z"/>
          <path class="cls-1" d="M85.01,42.19c0-18.58,26.82-18.54,26.82,0v5.58c0,18.54-26.82,18.58-26.82,0v-5.58Zm5.13,5.58c0,12.17,16.57,12.17,16.57,0v-5.58c0-11.99-16.57-12.13-16.57,0v5.58Z"/>
          <path class="cls-1" d="M138.75,29.01v20.87h3.8v4.76h-3.8v6.36h-5.08v-6.36h-17.76l-.64-4.62,17.58-21.01h5.9Zm-5.08,20.87v-14.92l-12.68,14.92h12.68Z"/>
        </g>
      </g>
      <g>
        <path class="cls-1" d="M159.79,25.21V4.48h3.29V25.21h-3.29Z"/>
        <path class="cls-1" d="M185.63,22.55c-2.13,2.1-4.89,3.08-7.79,3.08-7.53,0-10.9-5.18-10.93-10.64-.03-5.45,3.53-10.87,10.93-10.87,2.78,0,5.48,1.04,7.58,3.14l-2.22,2.13c-1.48-1.45-3.44-2.13-5.36-2.13-5.27,0-7.67,3.88-7.64,7.7,.03,3.79,2.28,7.55,7.64,7.55,1.92,0,4.06-.8,5.51-2.25l2.28,2.28Z"/>
        <path class="cls-1" d="M201.09,9.07c-.98-1.42-2.96-2.28-5.12-2.31-2.79,0-4.8,1.16-4.8,3.14s2.31,2.58,5.04,2.96c4.27,.59,8.32,1.78,8.32,6.43-.03,4.65-4.27,6.4-8.59,6.4-3.97,0-7.02-1.21-8.92-4.71l2.49-1.66c1.48,2.52,4.06,3.41,6.46,3.41s5.24-.83,5.24-3.44c0-2.25-2.4-3.02-5.3-3.41-4.12-.56-8.03-1.6-8.03-6.04-.03-4.3,4.27-5.95,8-5.95,2.99,0,5.98,.71,7.73,3.5l-2.52,1.69Z"/>
        <path class="cls-1" d="M228.84,20.86h-11.23l-1.95,4.35h-3.53l9.3-20.74h3.61l9.3,20.74h-3.53l-1.98-4.35Zm-5.6-12.89l-4.38,9.86h8.77l-4.38-9.86Z"/>
        <path class="cls-1" d="M253.75,22.55c-2.13,2.1-4.89,3.08-7.79,3.08-7.53,0-10.9-5.18-10.93-10.64-.03-5.45,3.53-10.87,10.93-10.87,2.78,0,5.48,1.04,7.58,3.14l-2.22,2.13c-1.48-1.45-3.44-2.13-5.36-2.13-5.27,0-7.67,3.88-7.64,7.7,.03,3.79,2.28,7.55,7.64,7.55,1.92,0,4.06-.8,5.51-2.25l2.28,2.28Z"/>
        <path class="cls-1" d="M271.38,20.86h-11.23l-1.95,4.35h-3.53l9.3-20.74h3.61l9.3,20.74h-3.53l-1.98-4.35Zm-5.6-12.89l-4.38,9.86h8.77l-4.38-9.86Z"/>
        <path class="cls-1" d="M287.49,4.48c7.08,0,10.31,5.07,10.4,10.19,.12,5.24-3.14,10.55-10.4,10.55h-7.85V4.48h7.85Zm-4.56,17.54h4.56c5.07,0,7.2-3.73,7.11-7.38-.09-3.5-2.22-6.99-7.11-6.99h-4.56v14.37Z"/>
        <path class="cls-1" d="M317.06,25.21h-15.32V4.48h15.23v3.23h-11.91v5.6h11.44v3.08h-11.44v5.57h12v3.26Z"/>
        <path class="cls-1" d="M339.24,9.33l-7.05,9.81h-.71l-6.96-9.81v15.91h-3.32V4.51h3.85l6.84,9.72,6.81-9.72h3.85V25.24h-3.32V9.33Z"/>
        <path class="cls-1" d="M355.18,13.63l5.9-9.15h4v.15l-8.24,12.09v8.5h-3.32v-8.5l-8-12.09v-.15h3.94l5.72,9.15Z"/>
        <path class="cls-1" d="M177.83,42.08l-7.05,9.81h-.71l-6.96-9.81v15.91h-3.32v-20.74h3.85l6.84,9.72,6.81-9.72h3.85v20.74h-3.32v-15.91Z"/>
        <path class="cls-1" d="M200.61,53.6h-11.23l-1.95,4.35h-3.53l9.3-20.74h3.61l9.3,20.74h-3.53l-1.98-4.35Zm-5.6-12.89l-4.38,9.87h8.77l-4.38-9.87Z"/>
        <path class="cls-1" d="M223.19,51.97v-14.75h3.32v20.74h-2.52l-11.76-14.63v14.63h-3.35v-20.74h2.55l11.76,14.75Z"/>
        <path class="cls-1" d="M245.87,57.96v-8.62h-10.96v8.62h-3.32v-20.74h3.32v9.04h10.96v-9.04h3.29v20.74h-3.29Z"/>
        <path class="cls-1" d="M268.63,53.6h-11.23l-1.95,4.35h-3.53l9.3-20.74h3.61l9.3,20.74h-3.53l-1.98-4.35Zm-5.6-12.89l-4.38,9.87h8.77l-4.38-9.87Z"/>
        <path class="cls-1" d="M280.2,51.59v6.37h-3.32v-20.74c3.17,0,6.43-.03,9.6-.03,9.9,0,9.92,14.34,0,14.4h-6.28Zm0-3.05h6.28c5.48,0,5.45-8.29,0-8.29h-6.28v8.29Z"/>
        <path class="cls-1" d="M300.56,51.59v6.37h-3.32v-20.74c3.17,0,6.43-.03,9.6-.03,9.9,0,9.92,14.34,0,14.4h-6.28Zm0-3.05h6.28c5.48,0,5.45-8.29,0-8.29h-6.28v8.29Z"/>
        <path class="cls-1" d="M330.47,53.6h-11.23l-1.95,4.35h-3.53l9.3-20.74h3.61l9.3,20.74h-3.53l-1.98-4.35Zm-5.6-12.89l-4.38,9.87h8.77l-4.38-9.87Z"/>
        <path class="cls-1" d="M341.58,40.21h-6.81v-2.99h16.95v2.99h-6.79v17.75h-3.35v-17.75Z"/>
        <path class="cls-1" d="M367.2,53.6h-11.23l-1.95,4.35h-3.53l9.3-20.74h3.61l9.3,20.74h-3.53l-1.98-4.35Zm-5.6-12.89l-4.38,9.87h8.77l-4.38-9.87Z"/>
      </g>
      <path class="cls-1" d="M99.46,.18V12c0,5.16-3.35,8.74-8.65,8.74-5.02,0-8.62-3.11-8.62-8.57h3.17c0,3.55,1.93,5.54,5.45,5.54s5.42-2.37,5.42-5.71V3.18h-6.49V.18h9.72Z"/>
      <path class="cls-1" d="M117.34,16.13h-10.93l-1.9,4.24h-3.43L110.13,.18h3.52l9.06,20.19h-3.43l-1.93-4.24Zm-5.45-12.55l-4.27,9.6h8.54l-4.27-9.6Z"/>
      <path class="cls-1" d="M139.32,14.54V.18h3.23V20.37h-2.45l-11.45-14.25v14.25h-3.26V.18h2.48l11.45,14.36Z"/>
      <line class="cls-2" x1="1.15" y1="70.17" x2="380.12" y2="70.17"/>
    </g>
  </g>
</svg>